# xmcd CD database file
#
# Track frame offsets:
#	150
#	17624
#	31757
#	51113
#	66959
#	84554
#	98357
#	113245
#	128276
#	143300
#	160553
#	177438
#	193451
#	207423
#	225042
#	246479
#	261323
#	276382
#	294991
#
# Disc length: 4176 seconds
#
# Revision: 0
# Processed by: cddbd v1.5.2PL0 Copyright (c) Steve Scherf et al.
# Submitted via: CDex 1.70beta2
#
DISCID=fd104e13
DTITLE=Marco Aurelio e Paulo Sérgio - Violada
DYEAR=2008
DGENRE=Country
TTITLE0=Deusa Menina
TTITLE1=Mágica ou Sonho
TTITLE2=Labirinto
TTITLE3=Apaixonado por Você
TTITLE4=Quem sabe de mim sou eu - Saudade Dela
TTITLE5=Festa na República
TTITLE6=Deixa Rolar
TTITLE7=Amor Casual
TTITLE8=Deletei
TTITLE9=Não vivo sem você
TTITLE10=Mil perdões
TTITLE11=Saudade de mim - Te amo, não te quero
TTITLE12=Você de volta (part. Maria Cecília e Rodolfo)
TTITLE13=Novela das oito
TTITLE14=Mocinhas da cidade - Cabelo loiro - Viva a vida
TTITLE15=Tem jeito não
TTITLE16=Tô de cara
TTITLE17=Por causa dela
TTITLE18=Só da você
EXTD=YEAR: 2008
EXTT0=
EXTT1=
EXTT2=
EXTT3=
EXTT4=
EXTT5=
EXTT6=
EXTT7=
EXTT8=
EXTT9=
EXTT10=
EXTT11=
EXTT12=
EXTT13=
EXTT14=
EXTT15=
EXTT16=
EXTT17=
EXTT18=
PLAYORDER=
